{
	"asset":
	{
		"version": "2.0",
		"generator": "Unreal Engine 5.2.1"
	},
	"scene": 0,
	"accessors": [
		{
			"bufferView": 0,
			"count": 68,
			"type": "MAT4",
			"componentType": 5126
		},
		{
			"bufferView": 1,
			"count": 123012,
			"type": "SCALAR",
			"componentType": 5123
		},
		{
			"bufferView": 2,
			"count": 23262,
			"type": "VEC3",
			"componentType": 5126,
			"min": [ -0.693632722, -0.000365142827, -0.219718516 ],
			"max": [ 0.693632722, 1.82530391, 0.147509098 ]
		},
		{
			"bufferView": 3,
			"count": 23262,
			"type": "VEC3",
			"componentType": 5126
		},
		{
			"bufferView": 4,
			"count": 23262,
			"type": "VEC4",
			"componentType": 5126
		},
		{
			"bufferView": 5,
			"count": 23262,
			"type": "VEC2",
			"componentType": 5126
		},
		{
			"bufferView": 6,
			"count": 23262,
			"type": "VEC4",
			"componentType": 5121
		},
		{
			"bufferView": 7,
			"count": 23262,
			"type": "VEC4",
			"componentType": 5121,
			"normalized": true
		},
		{
			"bufferView": 8,
			"count": 144,
			"type": "SCALAR",
			"componentType": 5121
		},
		{
			"bufferView": 9,
			"count": 35,
			"type": "VEC3",
			"componentType": 5126,
			"min": [ -0.081183359, 1.44233704, 0.0157165099 ],
			"max": [ 0.081183359, 1.53507864, 0.111234635 ]
		},
		{
			"bufferView": 10,
			"count": 35,
			"type": "VEC3",
			"componentType": 5126
		},
		{
			"bufferView": 11,
			"count": 35,
			"type": "VEC4",
			"componentType": 5126
		},
		{
			"bufferView": 12,
			"count": 35,
			"type": "VEC2",
			"componentType": 5126
		},
		{
			"bufferView": 13,
			"count": 35,
			"type": "VEC4",
			"componentType": 5121
		},
		{
			"bufferView": 14,
			"count": 35,
			"type": "VEC4",
			"componentType": 5121,
			"normalized": true
		}
	],
	"buffers": [
		{
			"uri": "SK_Mannequin.bin",
			"byteLength": 1555152
		}
	],
	"bufferViews": [
		{
			"buffer": 0,
			"byteLength": 4352
		},
		{
			"buffer": 0,
			"byteLength": 246024,
			"byteOffset": 4352,
			"target": 34963
		},
		{
			"buffer": 0,
			"byteLength": 279144,
			"byteOffset": 250376,
			"target": 34962
		},
		{
			"buffer": 0,
			"byteLength": 279144,
			"byteOffset": 529520,
			"target": 34962
		},
		{
			"buffer": 0,
			"byteLength": 372192,
			"byteOffset": 808664,
			"target": 34962
		},
		{
			"buffer": 0,
			"byteLength": 186096,
			"byteOffset": 1180856,
			"target": 34962
		},
		{
			"buffer": 0,
			"byteLength": 93048,
			"byteOffset": 1366952,
			"target": 34962
		},
		{
			"buffer": 0,
			"byteLength": 93048,
			"byteOffset": 1460000,
			"target": 34962
		},
		{
			"buffer": 0,
			"byteLength": 144,
			"byteOffset": 1553048,
			"target": 34963
		},
		{
			"buffer": 0,
			"byteLength": 420,
			"byteOffset": 1553192,
			"target": 34962
		},
		{
			"buffer": 0,
			"byteLength": 420,
			"byteOffset": 1553612,
			"target": 34962
		},
		{
			"buffer": 0,
			"byteLength": 560,
			"byteOffset": 1554032,
			"target": 34962
		},
		{
			"buffer": 0,
			"byteLength": 280,
			"byteOffset": 1554592,
			"target": 34962
		},
		{
			"buffer": 0,
			"byteLength": 140,
			"byteOffset": 1554872,
			"target": 34962
		},
		{
			"buffer": 0,
			"byteLength": 140,
			"byteOffset": 1555012,
			"target": 34962
		}
	],
	"images": [
		{
			"uri": "M_Male_Body_BaseColor.png"
		},
		{
			"uri": "M_Male_Body_MetallicRoughness.png"
		},
		{
			"uri": "M_Male_Body_Normal.png"
		},
		{
			"uri": "M_UE4Man_ChestLogo_BaseColor.png"
		},
		{
			"uri": "M_UE4Man_ChestLogo_Normal.png"
		}
	],
	"materials": [
		{
			"name": "M_Male_Body",
			"pbrMetallicRoughness":
			{
				"baseColorTexture":
				{
					"index": 0
				},
				"metallicRoughnessTexture":
				{
					"index": 1
				}
			},
			"normalTexture":
			{
				"index": 2
			},
			"alphaMode": "MASK",
			"alphaCutoff": 0.333299994
		},
		{
			"name": "M_UE4Man_ChestLogo",
			"pbrMetallicRoughness":
			{
				"baseColorTexture":
				{
					"index": 3
				},
				"metallicFactor": 0,
				"roughnessFactor": 0.0980392247
			},
			"normalTexture":
			{
				"index": 4
			},
			"alphaMode": "MASK",
			"alphaCutoff": 0.333000004
		}
	],
	"meshes": [
		{
			"name": "SK_Mannequin",
			"primitives": [
				{
					"attributes":
					{
						"POSITION": 2,
						"NORMAL": 3,
						"TANGENT": 4,
						"TEXCOORD_0": 5,
						"JOINTS_0": 6,
						"WEIGHTS_0": 7
					},
					"indices": 1,
					"material": 0
				},
				{
					"attributes":
					{
						"POSITION": 9,
						"NORMAL": 10,
						"TANGENT": 11,
						"TEXCOORD_0": 12,
						"JOINTS_0": 13,
						"WEIGHTS_0": 14
					},
					"indices": 8,
					"material": 1
				}
			]
		}
	],
	"nodes": [
		{
			"skin": 0,
			"mesh": 0,
			"children": [ 1 ]
		},
		{
			"name": "root",
			"children": [ 2, 62, 65 ]
		},
		{
			"name": "pelvis",
			"translation": [ 1.35368415e-30, 0.967505991, -0.0105615323 ],
			"rotation": [ -0.00128522585, 0.00128522585, -0.707105637, -0.707105637 ],
			"children": [ 3, 50, 56 ]
		},
		{
			"name": "spine_01",
			"translation": [ 0.108088776, -6.09109354e-15, 0.00851415098 ],
			"rotation": [ -4.61297264e-33, 0.0623885766, -2.49883797e-32, -0.998051941 ],
			"children": [ 4 ]
		},
		{
			"name": "spine_02",
			"translation": [ 0.188753486, 5.96609318e-10, -0.0380115844 ],
			"rotation": [ 3.09874307e-33, -0.122419655, -2.52209513e-32, -0.99247843 ],
			"children": [ 5 ]
		},
		{
			"name": "spine_03",
			"translation": [ 0.134073287, -5.57523904e-15, -0.00420477381 ],
			"rotation": [ 5.56329077e-33, -0.0242526121, -2.47941234e-32, -0.99970597 ],
			"children": [ 6, 27, 48 ]
		},
		{
			"name": "clavicle_l",
			"translation": [ 0.11883688, -0.0378198288, 0.0273208786 ],
			"rotation": [ -0.208917916, -0.123043865, 0.729416788, -0.639659822 ],
			"children": [ 7 ]
		},
		{
			"name": "upperarm_l",
			"translation": [ 0.157848716, 6.35912989e-11, -1.43179539e-11 ],
			"rotation": [ -0.112995826, 0.161419183, 0.330629826, -0.922962606 ],
			"children": [ 8, 26 ]
		},
		{
			"name": "lowerarm_l",
			"translation": [ 0.303399295, 3.19752766e-11, -8.40746986e-11 ],
			"rotation": [ 0.0540165193, 0.263409734, -0.079182744, -0.959910333 ],
			"children": [ 9, 25 ]
		},
		{
			"name": "hand_l",
			"translation": [ 0.26975143, -9.62074864e-11, -1.57296745e-11 ],
			"rotation": [ 0.617895246, -0.0106532956, 0.0193719845, -0.785949588 ],
			"children": [ 10, 13, 16, 19, 22 ]
		},
		{
			"name": "index_01_l",
			"translation": [ 0.120681137, -0.0210939758, -0.0176346153 ],
			"rotation": [ -0.133304551, -0.223179787, -0.00318011455, -0.9656142 ],
			"children": [ 11 ]
		},
		{
			"name": "index_02_l",
			"translation": [ 0.0428749807, 5.04841308e-11, 2.9850325e-10 ],
			"rotation": [ -0.012043532, -0.104448266, -0.00290583633, -0.994453251 ],
			"children": [ 12 ]
		},
		{
			"name": "index_03_l",
			"translation": [ 0.0339379013, -2.34922828e-11, -1.16954474e-10 ],
			"rotation": [ -0.0106111458, 0.082855083, 0.00785088539, -0.996474206 ]
		},
		{
			"name": "middle_01_l",
			"translation": [ 0.122442804, 0.00571161974, -0.0129364356 ],
			"rotation": [ -0.0285221711, -0.198484913, -0.0568739325, -0.978036582 ],
			"children": [ 14 ]
		},
		{
			"name": "middle_02_l",
			"translation": [ 0.0464037396, 1.83086254e-11, 3.6481821e-11 ],
			"rotation": [ 0.0186288748, -0.107116602, 0.00797219947, -0.994039953 ],
			"children": [ 15 ]
		},
		{
			"name": "middle_03_l",
			"translation": [ 0.0364884362, 1.60763486e-11, 1.9989442e-10 ],
			"rotation": [ -0.00162142678, 0.133623704, -0.0388670005, -0.990268469 ]
		},
		{
			"name": "pinky_01_l",
			"translation": [ 0.101406649, 0.0464314781, -0.0226315111 ],
			"rotation": [ 0.129537731, -0.14421314, -0.187896952, -0.962869287 ],
			"children": [ 17 ]
		},
		{
			"name": "pinky_02_l",
			"translation": [ 0.0357098058, 3.91818132e-12, -1.86698795e-10 ],
			"rotation": [ -0.0103597203, -0.0977482274, -0.0105193993, -0.99510175 ],
			"children": [ 18 ]
		},
		{
			"name": "pinky_03_l",
			"translation": [ 0.0298563074, -4.03754183e-11, 3.0058786e-10 ],
			"rotation": [ -0.00358095183, -0.00893030316, 0.0337963849, -0.999382436 ]
		},
		{
			"name": "ring_01_l",
			"translation": [ 0.114978842, 0.0284691229, -0.0175352655 ],
			"rotation": [ 0.0954805017, -0.18851167, -0.116765723, -0.97041887 ],
			"children": [ 20 ]
		},
		{
			"name": "ring_02_l",
			"translation": [ 0.0443017706, -9.40334009e-12, -4.66650364e-11 ],
			"rotation": [ -0.00430111121, -0.115963154, -0.0141676022, -0.993143141 ],
			"children": [ 21 ]
		},
		{
			"name": "ring_03_l",
			"translation": [ 0.0347665213, 2.76865111e-11, 1.67863584e-10 ],
			"rotation": [ 0.000198828377, 0.112212859, 0.0262577683, -0.993337214 ]
		},
		{
			"name": "thumb_01_l",
			"translation": [ 0.0476203635, -0.0253781956, -0.023749806 ],
			"rotation": [ -0.630309105, 0.0772901624, 0.371525109, -0.67727828 ],
			"children": [ 23 ]
		},
		{
			"name": "thumb_02_l",
			"translation": [ 0.0386967175, 9.98497257e-11, -5.01187009e-11 ],
			"rotation": [ -0.00260468572, -0.130141154, 0.0867984891, -0.987685442 ],
			"children": [ 24 ]
		},
		{
			"name": "thumb_03_l",
			"translation": [ 0.0406217128, -5.12727621e-12, -1.07219121e-11 ],
			"rotation": [ -0.0213990938, 0.107937463, 0.00188337802, -0.993925571 ]
		},
		{
			"name": "lowerarm_twist_01_l",
			"translation": [ 0.140000001, 1.42108544e-16, -3.5527136e-17 ]
		},
		{
			"name": "upperarm_twist_01_l",
			"translation": [ 0.00499999989, 0, 3.5527136e-17 ]
		},
		{
			"name": "clavicle_r",
			"translation": [ 0.118837886, 0.0378200263, 0.0273210239 ],
			"rotation": [ -0.729416788, 0.639659822, -0.208917916, -0.123043865 ],
			"children": [ 28 ]
		},
		{
			"name": "upperarm_r",
			"translation": [ -0.157847971, -1.11714712e-07, 7.0139599e-08 ],
			"rotation": [ -0.112995826, 0.161419183, 0.330629826, -0.922962606 ],
			"children": [ 29, 47 ]
		},
		{
			"name": "lowerarm_r",
			"translation": [ -0.303400487, 1.75135373e-08, 4.08502139e-08 ],
			"rotation": [ 0.0540165193, 0.263409734, -0.079182744, -0.959910333 ],
			"children": [ 30, 46 ]
		},
		{
			"name": "hand_r",
			"translation": [ -0.269752443, -1.19053842e-08, -2.56341195e-07 ],
			"rotation": [ 0.617895246, -0.0106532956, 0.0193719845, -0.785949588 ],
			"children": [ 31, 34, 37, 40, 43 ]
		},
		{
			"name": "index_01_r",
			"translation": [ -0.120679416, 0.0210942812, 0.0176372528 ],
			"rotation": [ -0.133304551, -0.223179787, -0.00318011455, -0.9656142 ],
			"children": [ 32 ]
		},
		{
			"name": "index_02_r",
			"translation": [ -0.0428768806, -7.42620955e-07, -9.24598339e-07 ],
			"rotation": [ -0.012043532, -0.104448266, -0.00290583633, -0.994453251 ],
			"children": [ 33 ]
		},
		{
			"name": "index_03_r",
			"translation": [ -0.0339379795, -1.24079563e-07, -1.20696984e-06 ],
			"rotation": [ -0.0106111458, 0.082855083, 0.00785088539, -0.996474206 ]
		},
		{
			"name": "middle_01_r",
			"translation": [ -0.122441128, -0.00571130216, 0.0129372412 ],
			"rotation": [ -0.0285221711, -0.198484913, -0.0568739325, -0.978036582 ],
			"children": [ 35 ]
		},
		{
			"name": "middle_02_r",
			"translation": [ -0.0464056879, 7.63695525e-08, 1.44910564e-06 ],
			"rotation": [ 0.0186288748, -0.107116602, 0.00797219947, -0.994039953 ],
			"children": [ 36 ]
		},
		{
			"name": "middle_03_r",
			"translation": [ -0.0364890918, -2.26664305e-08, -3.29968088e-07 ],
			"rotation": [ -0.00162142678, 0.133623704, -0.0388670005, -0.990268469 ]
		},
		{
			"name": "pinky_01_r",
			"translation": [ -0.101405926, -0.0464309454, 0.022633547 ],
			"rotation": [ 0.129537731, -0.14421314, -0.187896952, -0.962869287 ],
			"children": [ 38 ]
		},
		{
			"name": "pinky_02_r",
			"translation": [ -0.0357105695, -8.10798397e-08, 7.80196785e-07 ],
			"rotation": [ -0.0103597203, -0.0977482274, -0.0105193993, -0.99510175 ],
			"children": [ 39 ]
		},
		{
			"name": "pinky_03_r",
			"translation": [ -0.0298541915, -3.5056928e-07, -3.17276681e-06 ],
			"rotation": [ -0.0035809644, -0.00893030409, 0.0337963887, -0.999382436 ]
		},
		{
			"name": "ring_01_r",
			"translation": [ -0.114979729, -0.0284691472, 0.0175376609 ],
			"rotation": [ 0.0954805017, -0.18851167, -0.116765723, -0.97041887 ],
			"children": [ 41 ]
		},
		{
			"name": "ring_02_r",
			"translation": [ -0.0442986414, -1.8378698e-07, -8.44798819e-07 ],
			"rotation": [ -0.00430111121, -0.115963154, -0.0141676022, -0.993143141 ],
			"children": [ 42 ]
		},
		{
			"name": "ring_03_r",
			"translation": [ -0.0347665884, -2.84312769e-08, -7.19416391e-07 ],
			"rotation": [ 0.000198828377, 0.112212859, 0.0262577683, -0.993337214 ]
		},
		{
			"name": "thumb_01_r",
			"translation": [ -0.0476212427, 0.0253780168, 0.0237511992 ],
			"rotation": [ -0.630309105, 0.0772901624, 0.371525109, -0.67727828 ],
			"children": [ 44 ]
		},
		{
			"name": "thumb_02_r",
			"translation": [ -0.0386956893, 5.5954888e-07, -1.13570502e-06 ],
			"rotation": [ -0.00260470086, -0.130141169, 0.0867984965, -0.987685442 ],
			"children": [ 45 ]
		},
		{
			"name": "thumb_03_r",
			"translation": [ -0.0406217612, 3.20495914e-08, -2.01217336e-08 ],
			"rotation": [ -0.0213990789, 0.107937463, 0.00188337395, -0.993925571 ]
		},
		{
			"name": "lowerarm_twist_01_r",
			"translation": [ -0.140000001, -6.57832686e-08, -2.43319448e-07 ],
			"rotation": [ 0.117627122, 1.37814461e-17, 1.63240423e-18, -0.993057847 ]
		},
		{
			"name": "upperarm_twist_01_r",
			"translation": [ -0.00499999989, -1.15598038e-08, 3.70079398e-08 ],
			"rotation": [ 0.173234865, 3.09973816e-18, -2.76364401e-17, -0.984880567 ]
		},
		{
			"name": "neck_01",
			"translation": [ 0.165587828, -5.96597383e-10, 0.0035531756 ],
			"rotation": [ -0, 0.20371075, -0, -0.979031146 ],
			"children": [ 49 ]
		},
		{
			"name": "head",
			"translation": [ 0.0928361267, 2.92736936e-17, -0.00364156859 ],
			"rotation": [ 3.29206376e-33, -0.133541971, 2.44310999e-32, -0.99104315 ]
		},
		{
			"name": "thigh_l",
			"translation": [ -0.0144882863, -0.0900580958, 0.00531423511 ],
			"rotation": [ -0.073704876, 0.00858432613, -0.0621388443, -0.995305419 ],
			"children": [ 51, 55 ]
		},
		{
			"name": "calf_l",
			"translation": [ -0.425720364, -4.66787503e-12, -1.70741969e-12 ],
			"rotation": [ 0.0488842539, 0.0655222684, 0.0188638996, -0.996474445 ],
			"children": [ 52, 53 ]
		},
		{
			"name": "calf_twist_01_l",
			"translation": [ -0.204767764, 0, -0 ],
			"rotation": [ -0.00280894572, 0.00761269359, -0.00193332101, -0.99996531 ]
		},
		{
			"name": "foot_l",
			"translation": [ -0.4019669, 1.89945824e-12, 3.93385047e-11 ],
			"rotation": [ 0.00588577101, -0.0703547522, 0.0319912881, -0.996991515 ],
			"children": [ 54 ]
		},
		{
			"name": "ball_l",
			"translation": [ -0.104538374, 0.000801559421, 0.165778533 ],
			"rotation": [ -8.00762209e-05, 0.718633771, 2.95930258e-05, -0.695388734 ]
		},
		{
			"name": "thigh_twist_01_l",
			"translation": [ -0.220942378, 0, -3.330669e-18 ],
			"rotation": [ 0.0474435724, 0.000491108513, 2.14824922e-05, -0.998873889 ]
		},
		{
			"name": "thigh_r",
			"translation": [ -0.0144864451, 0.0900580287, 0.00531427562 ],
			"rotation": [ -0.0621388443, -0.995305419, 0.073704876, -0.00858432613 ],
			"children": [ 57, 61 ]
		},
		{
			"name": "calf_r",
			"translation": [ 0.42572248, -5.83675552e-09, 1.62336278e-08 ],
			"rotation": [ 0.0488842539, 0.0655222684, 0.0188638996, -0.996474445 ],
			"children": [ 58, 59 ]
		},
		{
			"name": "calf_twist_01_r",
			"translation": [ 0.204769075, -3.5527136e-17, -0 ],
			"rotation": [ -0.00280728051, 0.00761253387, -0.00193372346, -0.99996531 ]
		},
		{
			"name": "foot_r",
			"translation": [ 0.401968181, -1.09180178e-07, -1.67693539e-08 ],
			"rotation": [ 0.00588577101, -0.0703547522, 0.0319912881, -0.996991515 ],
			"children": [ 60 ]
		},
		{
			"name": "ball_r",
			"translation": [ 0.104538165, -0.000801584451, -0.165777966 ],
			"rotation": [ -8.00762209e-05, 0.718633771, 2.95930258e-05, -0.695388734 ]
		},
		{
			"name": "thigh_twist_01_r",
			"translation": [ 0.220942393, -3.5527136e-17, -2.220446e-18 ],
			"rotation": [ 0.0474452376, 0.000491178653, 2.19067861e-05, -0.99887383 ]
		},
		{
			"name": "ik_foot_root",
			"children": [ 63, 64 ]
		},
		{
			"name": "ik_foot_l",
			"translation": [ 0.170762703, 0.134657308, -0.080721274 ],
			"rotation": [ -0.0205298513, -0.0117239784, -0.712232828, -0.70154506 ]
		},
		{
			"name": "ik_foot_r",
			"translation": [ -0.170762882, 0.134655729, -0.0807214826 ],
			"rotation": [ 0.70154506, -0.712232828, 0.0117239784, -0.0205298513 ]
		},
		{
			"name": "ik_hand_root",
			"children": [ 66 ]
		},
		{
			"name": "ik_hand_gun",
			"translation": [ -0.566460967, 1.11679649, -0.00335411751 ],
			"rotation": [ -0.618849695, -0.389136165, -0.0695411339, -0.678794622 ],
			"children": [ 67, 68 ]
		},
		{
			"name": "ik_hand_l",
			"translation": [ 0.778854251, 0.438695014, 0.696019113 ],
			"rotation": [ -0.687474132, -0.3872253, -0.614358127, 2.03884981e-15 ]
		},
		{
			"name": "ik_hand_r"
		}
	],
	"samplers": [
		{
			"minFilter": 9987,
			"magFilter": 9729
		}
	],
	"scenes": [
		{
			"nodes": [ 0 ]
		}
	],
	"skins": [
		{
			"name": "UE4_Mannequin_Skeleton",
			"inverseBindMatrices": 0,
			"skeleton": 0,
			"joints": [ 1, 2, 3, 4, 5, 6, 7, 8, 9, 10, 11, 12, 13, 14, 15, 16, 17, 18, 19, 20, 21, 22, 23, 24, 25, 26, 27, 28, 29, 30, 31, 32, 33, 34, 35, 36, 37, 38, 39, 40, 41, 42, 43, 44, 45, 46, 47, 48, 49, 50, 51, 52, 53, 54, 55, 56, 57, 58, 59, 60, 61, 62, 63, 64, 65, 66, 67, 68 ]
		}
	],
	"textures": [
		{
			"name": "M_Male_Body_BaseColor",
			"sampler": 0,
			"source": 0
		},
		{
			"name": "M_Male_Body_MetallicRoughness",
			"sampler": 0,
			"source": 1
		},
		{
			"name": "M_Male_Body_Normal",
			"sampler": 0,
			"source": 2
		},
		{
			"name": "M_UE4Man_ChestLogo_BaseColor",
			"sampler": 0,
			"source": 3
		},
		{
			"name": "M_UE4Man_ChestLogo_Normal",
			"sampler": 0,
			"source": 4
		}
	]
}